<svg version="1.1" xmlns="http://www.w3.org/2000/svg" xmlns:xlink="http://www.w3.org/1999/xlink" width="519.73348" height="918.25" viewBox="0,0,519.73348,918.25"><g transform="translate(42.21378,-38.08493)"><g data-paper-data="{&quot;isPaintingLayer&quot;:true}" fill-rule="nonzero" stroke-linecap="butt" stroke-linejoin="miter" stroke-miterlimit="10" stroke-dasharray="" stroke-dashoffset="0" style="mix-blend-mode: normal"><g stroke="none" stroke-width="0"><path d="M-19.4803,80.08493v-39h290v39z" fill="#dcdcdc"/><path d="M268.5197,78.08493v-40h209v40z" fill="#c7c7c7"/><path d="M-18.4803,131.08493v-57h496v57z" fill="#c7c7c7"/><path d="M-24.4803,164.08493v-39h290v39z" fill="#c7c7c7"/></g><g fill="#b4b4b4" stroke="none" stroke-width="0"><path d="M263.98198,167.06607v-40h209v40z"/><path d="M-23.01802,220.06607v-57h496v57z"/><path d="M-29.01802,253.06607v-39h290v39z"/></g><g fill="#a3a3a3" stroke="none" stroke-width="0"><path d="M260.98198,248.06607v-40h209v40z"/><path d="M-26.01802,301.06607v-57h496v57z"/><path d="M-32.01802,334.06607v-39h290v39z"/></g><g fill="#6c6c6c" stroke="#0a0a0a" stroke-width="0"><path d="M255.98198,332.06607v-40h209v40z"/><path d="M-31.01802,385.06607v-57h496v57z"/><path d="M-37.01802,418.06607v-39h290v39z"/></g><g fill="#0a0a0a" stroke="#0a0a0a" stroke-width="2.5"><path d="M191.52029,397.62334l35.9475,-48.03933l48.03933,35.9475l-35.9475,48.03933z"/><path d="M2.89108,368.81315l72.38689,-65.85834l65.85834,72.38689l-72.38689,65.85834z"/><path d="M106.89109,379.20337l60.34381,-88.24856l54.90142,96.99666l-60.34381,88.24857z"/><path d="M347.89109,397.20337l60.34381,-88.24856l54.90142,96.99666l-60.34381,88.24857z"/><path d="M248.89109,398.81315l72.38689,-65.85834l65.85834,72.38689l-72.38689,65.85834z"/><path d="M-37.47971,374.62334l35.9475,-48.03933l48.03933,35.9475l-35.9475,48.03933z"/></g><path d="M-40.96378,955.08493v-577h515.43844v577z" fill="#0a0a0a" stroke="#0a0a0a" stroke-width="2.5"/></g></g></svg>