<svg version="1.1" xmlns="http://www.w3.org/2000/svg" xmlns:xlink="http://www.w3.org/1999/xlink" width="116" height="29.25" viewBox="0,0,116,29.25"><g transform="translate(-182.25,-165.5)"><g data-paper-data="{&quot;isPaintingLayer&quot;:true}" fill="#313131" fill-rule="nonzero" stroke="#000000" stroke-width="5" stroke-linecap="butt" stroke-linejoin="miter" stroke-miterlimit="10" stroke-dasharray="" stroke-dashoffset="0" style="mix-blend-mode: normal"><path d="M189,192c0,0 -4.25,-1.71532 -4.25,-4.18586c0,-5.401 0,-12.91144 0,-15.5c0,-1.37497 3,-3.81414 3,-3.81414c0,0 0.70907,-0.5 2.88443,-0.5c9.9988,0 79.80907,0 98.25,0c2.62737,0 5.36557,1 5.36557,1c0,0 1.5,1.65126 1.5,2.81414c0,2.39373 0,9.87368 0,15.5c0,2.74086 -2,3.93586 -2,3.93586c0,0 0.41837,0.75408 -2.36314,0.76121c-18.97982,0.04862 -90.82715,0.23879 -100.25243,0.23879c-1.91643,0 -2.13443,-0.25 -2.13443,-0.25z"/></g></g></svg>