<svg version="1.1" xmlns="http://www.w3.org/2000/svg" xmlns:xlink="http://www.w3.org/1999/xlink" width="504.5045" height="399.3994" viewBox="0,0,504.5045,399.3994"><g transform="translate(10.64438,10.46342)"><g data-paper-data="{&quot;isPaintingLayer&quot;:true}" fill-rule="nonzero" stroke-linejoin="miter" stroke-miterlimit="10" stroke-dasharray="" stroke-dashoffset="0" style="mix-blend-mode: normal"><g><path d="M-10.64438,388.93598v-399.3994h504.5045v399.3994z" fill="#6c6c6c" stroke="none" stroke-width="0" stroke-linecap="butt"/><path d="M76.85177,335.58689c0,0 -13.72339,-5.53883 -13.72339,-13.51628c0,-17.44001 0,-41.69147 0,-50.05001c0,-4.43982 9.6871,-12.31598 9.6871,-12.31598c0,0 2.28961,-1.61452 9.31392,-1.61452c32.28646,0 257.70613,0 317.25251,0c8.48386,0 17.3256,3.22903 17.3256,3.22903c0,0 4.84355,5.33197 4.84355,9.08695c0,7.72943 0,31.88244 0,50.05001c0,8.85033 -6.45807,12.70902 -6.45807,12.70902c0,0 1.35093,2.43495 -7.63066,2.45797c-61.28647,0.157 -293.28388,0.77106 -323.71842,0.77106c-6.18822,0 -6.89215,-0.80726 -6.89215,-0.80726z" fill="#313131" stroke="#000000" stroke-width="5" stroke-linecap="butt"/><path d="M190.36547,180c0,-27.4124 22.22214,-49.63453 49.63453,-49.63453c27.4124,0 49.63453,22.22214 49.63453,49.63453c0,27.4124 -22.22214,49.63453 -49.63453,49.63453c-27.4124,0 -49.63453,-22.22214 -49.63453,-49.63453z" fill="#ffffff" stroke="#000000" stroke-width="2.5" stroke-linecap="butt"/><g fill="none" stroke="#000000" stroke-width="10" stroke-linecap="round"><path d="M149.66464,94.34132v-55.5l18,-1l6.50001,5l4,8l-3,11l-7,5h-12.00001l18.50001,25.5"/><g><path d="M5.25831,37.00125v48.71429"/><path d="M37.1869,37.76315v49.5l-5.92858,5.92857h-18.14286l-7.14286,-7.14285"/></g><g><path d="M59.16465,68.00797h5l15,1.5l5,5l-0.5,8.5l-4,6l-5,4l-18,0.5v-51.5l22.5,-2.5l8.5,5v13.5"/><path d="M86.16465,58.50797l-7,1.5"/><path d="M58.66465,65.00797l17.5,0.5"/></g><g><path d="M135.16464,93.00797h-30.99999v-50h30"/><path d="M128.16464,67.00797h-22.49999"/></g><g><path d="M212.80128,64.66864h5l15,1.5l5,5l-0.5,8.5l-4,6l-5,4l-18,0.5v-51.50001l22.5,-2.5l8.5,5v13.50001"/><path d="M239.80128,55.16864l-7,1.5"/><path d="M212.30128,61.66864l17.5,0.5"/></g><g><path d="M307.89495,33.32857v48.71429"/><path d="M339.82352,34.09047v49.5l-5.92857,5.92857h-18.14285l-7.14286,-7.14285"/></g><g><path d="M263.87834,36.33216l12.33333,-1l13,4.33334l3,6l-1,27.66666l-1.66667,10l-5.33333,6l-6.66667,1.33334l-7.33333,-0.66667l-9,-3.33333l-5.66667,-8.33334v-33"/><path d="M261.23244,38.0198l-4.37488,4.29139"/></g><path d="M355.87833,89.6655v-55"/><path d="M356.21166,35.33216l28.33333,53.66667"/><path d="M384.545,32.6655v53"/><path d="M427.21166,33.6655h-18.33333"/><path d="M424.87834,87.6655l-15.66667,-1l-7.33333,-8l-1.66667,-30.66667l2.66667,-6.33333l5.66666,-5.66667"/><g><path d="M443.74169,29.65868l10.33333,32.58974l20.66667,-31"/><path d="M454.07503,58.27406l-1.58974,31.39744"/></g></g></g></g></g></svg>