<svg version="1.1" xmlns="http://www.w3.org/2000/svg" xmlns:xlink="http://www.w3.org/1999/xlink" width="49.66667" height="49.66667" viewBox="0,0,49.66667,49.66667"><g transform="translate(-215.16666,-155.16665)"><g data-paper-data="{&quot;isPaintingLayer&quot;:true}" fill-rule="nonzero" stroke-width="5" stroke-linejoin="miter" stroke-miterlimit="10" stroke-dasharray="" stroke-dashoffset="0" style="mix-blend-mode: normal"><path d="M217.66667,202.33333v-44.66667h44.66667v44.66667z" fill="#0f0f0f" stroke="#000000" stroke-linecap="butt"/><g fill="#ffffff" stroke="#ffffff" stroke-linecap="round"><path d="M227.48919,182.36293l13.62286,-12.9306l11.39875,12.009l-9.40463,0.34639c-0.97753,-0.83492 -2.39347,-1.23325 -3.5387,-0.81955c-0.86816,-0.06098 -1.67216,0.08172 -2.17896,0.51612c-0.13785,0.11816 -0.26717,0.29846 -0.38821,0.52832z"/><path d="M247.73212,179.4614v11.01371h-2.44483c0.15197,-0.65764 0.25288,-1.5569 -0.11771,-2.01301c-0.09287,-0.11431 -0.2729,-0.25289 -0.47245,-0.3996c-0.03176,-0.14455 -0.06595,-0.28611 -0.10247,-0.42405c-0.00908,-0.5885 -0.05485,-1.16064 -0.14815,-1.69839c-0.062,-0.35736 -0.17928,-0.65509 -0.33737,-0.89052c0.08872,-0.48835 0.16235,-0.8837 0.16235,-0.96253c0,-2.1618 -2.74719,-3.8257 -4.70404,-3.11882c-0.86816,-0.06098 -1.67216,0.08172 -2.17896,0.51612c-1.21498,1.04141 -1.76761,6.91036 -1.82273,8.99082h-2.0867v-10.4584z"/><path d="M244.12259,190.56767v-7.95949"/><path d="M236.5333,190.56767v-7.95949"/></g></g></g></svg>