<svg version="1.1" xmlns="http://www.w3.org/2000/svg" xmlns:xlink="http://www.w3.org/1999/xlink" width="199.25" height="99.91667" viewBox="0,0,199.25,99.91667"><g transform="translate(-140.375,-130.04167)"><g data-paper-data="{&quot;isPaintingLayer&quot;:true}" fill-rule="nonzero" stroke-linejoin="miter" stroke-miterlimit="10" stroke-dasharray="" stroke-dashoffset="0" style="mix-blend-mode: normal"><g><path d="M146.625,223.70833v-87.41667h186.75v87.41667z" fill="#1a1a1a" stroke="#000000" stroke-width="12.5" stroke-linecap="butt"/><g fill="none" stroke="#ffffff" stroke-width="5"><path d="M184.75937,200.29727v-39.67194" stroke-linecap="round"/><path d="M184.43973,168.15992c0,-6.02955 -1.31248,-10.60994 4.95443,-10.60994c6.26691,0 11.34724,4.88792 11.34724,10.91747c0,6.02955 -5.08033,10.91747 -11.34724,10.91747c-6.26691,0 -4.95443,-5.19545 -4.95443,-11.22501z" stroke-linecap="butt"/><path d="M209.69134,161.2404v39.36441h23.33376" stroke-linecap="round"/><g stroke-linecap="round"><path d="M264.50654,201.73577l-10.99698,-39.27158l-13.96394,38.69978"/><path d="M246.97675,182.68387l11.44499,0.20673"/></g><path d="M264.34987,157.85752l15.98203,15.37672l15.34275,-14.76165" stroke-linecap="round"/><path d="M280.3319,171.38904v31.06098" stroke-linecap="round"/></g></g></g></g></svg>